
<svg width="30px" height="29px" viewBox="0 0 30 29" version="1.1" xmlns="http://www.w3.org/2000/svg" xmlns:xlink="http://www.w3.org/1999/xlink">
    <g id="Home" stroke="none" stroke-width="1" fill="none" fill-rule="evenodd">
        <g id="Home-Header-XL" transform="translate(-1553.000000, -109.000000)" fill="#FFFFFF">
            <g id="Group" transform="translate(1553.000041, 108.999943)">
                <g id="Group-2" transform="translate(-0.000041, 0.000057)">
                    <path d="M14.9225233,10.1684529 C10.5867678,10.1795293 6.25166379,10.1902799 1.91558249,10.2026594 C1.72272297,10.2029852 1.5402883,10.1821355 1.3868477,10.0469384 C1.21939873,9.89936179 1.14772797,9.71464668 1.14968263,9.48660333 C1.16694876,7.30390276 1.82664558,5.34794242 3.14408456,3.6421782 C4.62473741,1.72563678 6.55202945,0.557729084 8.89989856,0.148228393 C9.36706164,0.0667843417 9.84725577,0.0299716304 10.3215859,0.0270396446 C13.3685708,0.00912195323 16.4162072,0.000651771878 19.463192,2.19466448e-07 C23.860845,-0.000977109151 27.692299,3.26232315 28.5041333,7.71144879 C28.6129426,8.30892235 28.6360727,8.92398783 28.6803782,9.532212 C28.7028568,9.8348581 28.5012013,10.0655077 28.2099574,10.1163287 C28.1180885,10.1322918 28.0229618,10.1345722 27.9291383,10.1345722 C23.5937086,10.1463002 19.257953,10.1573765 14.9225233,10.1684529" id="Fill-1"></path>
                    <path d="M27.3707106,22.5893615 C27.8013867,22.5877327 28.146058,22.7766829 28.1310723,23.1314531 C28.1079421,23.6823407 28.1346558,24.2345314 28.1248825,24.7860705 C28.0952369,26.4318919 26.3057482,27.9376295 24.0585439,28.204766 C23.7343966,28.2432076 23.4027564,28.2630799 23.074374,28.264383 C17.4039134,28.281975 11.7331269,28.2868616 6.0626663,28.3145526 C3.74216238,28.3259547 1.85494082,27.2603408 1.22651852,25.8288801 C1.06721396,25.4653139 0.990982325,25.0932775 0.992611206,24.7117935 C0.994565863,24.2094466 1.00955157,23.7067739 0.98283792,23.2054043 C0.963291348,22.8291328 1.33304734,22.6558199 1.73440363,22.6554941 C6.00989055,22.651259 10.2857033,22.6379022 14.5611902,22.6268258 C18.8308131,22.6157494 23.1010876,22.607605 27.3707106,22.5893615 Z" id="Fill-7"></path>
                    <path d="M5.74638489,18.5624606 C6.56147696,18.5484522 7.38341032,18.7123176 8.18286513,19.0615497 C9.62312174,19.6909493 11.0620752,19.6544624 12.5052638,19.033533 C14.104825,18.3448421 15.7226296,18.3399554 17.3264259,19.0201761 C18.7956766,19.643386 20.2460323,19.6401282 21.7120252,19.0090997 C23.294646,18.3275759 24.8951845,18.3200831 26.4872528,18.9797799 C27.2000512,19.2752589 27.9216454,19.4739824 28.6868938,19.4612771 C28.9927976,19.4563905 29.2351751,19.674009 29.2977241,19.9769808 C29.3563639,20.2584515 29.2221441,20.5734771 28.9748799,20.6989009 C28.8892008,20.7422292 28.7875586,20.7621015 28.6927577,20.7637304 C27.8779914,20.7770872 27.0886357,20.6350488 26.3272967,20.2962415 C24.8560914,19.6417571 23.3887953,19.6691223 21.9120518,20.3043859 C20.3291052,20.9852582 18.7243316,20.9901448 17.1378015,20.3183943 C15.6571486,19.6916009 14.1976712,19.6880174 12.7202761,20.3229552 C11.1203892,21.0109945 9.50258454,21.0093656 7.89943983,20.330448 C6.44191709,19.7131021 4.99384185,19.6938813 3.54674395,20.3425017 C2.78182142,20.6848925 1.99018524,20.8415909 1.16890342,20.8367043 C0.804685623,20.8347496 0.537223358,20.5679389 0.531685163,20.1975313 C0.525821191,19.826798 0.786442156,19.5290386 1.14740219,19.5322963 C1.92861353,19.5391376 2.66910285,19.344975 3.38841671,19.0156153 C4.13020913,18.6758307 4.91011737,18.5572481 5.74638489,18.5624606" id="Fill-9"></path>
                    <path d="M5.71299283,19.3310969 C6.50495479,19.3310969 7.30473537,19.5008263 8.10712217,19.8406109 C9.57474397,20.4621919 11.0560484,20.4592599 12.5103134,19.8344212 C14.1072683,19.1480107 15.7335431,19.1467076 17.3448323,19.8285572 C18.7919302,20.4413423 20.2575973,20.4367814 21.702089,19.8158519 C23.3394402,19.1115238 24.9679955,19.1098949 26.5431234,19.8103137 C27.2096615,20.1067701 27.9107319,20.2439219 28.6841247,20.2321939 C28.7118156,20.2315424 28.7310364,20.2260042 28.7355973,20.2240495 C28.7554696,20.2123216 28.7893504,20.143257 28.7772967,20.0852689 C28.7711069,20.0569263 28.7522119,19.9927484 28.6968299,19.9927484 L28.6955268,19.9927484 C27.9400518,20.0077341 27.1728488,19.8396336 26.2838056,19.4708549 C24.8298664,18.8684947 23.3622446,18.8776165 21.9223137,19.4972428 C20.330897,20.1820244 18.7143954,20.1862595 17.1187436,19.5096223 C15.6560084,18.8890186 14.1750298,18.8935795 12.7155524,19.521676 C11.1084984,20.2132989 9.51252072,20.2224206 7.96997038,19.5487154 C7.25000497,19.2340156 6.50462901,19.0812266 5.75566951,19.0939319 L5.74915399,19.0942576 L5.74329002,19.0939319 C4.90539361,19.0936061 4.22419557,19.217401 3.60978164,19.4988717 C2.76439239,19.8862196 1.95939939,20.0738667 1.14300421,20.0640934 L1.14170111,20.0640934 C1.11824522,20.0640934 1.10684305,20.0706089 1.09739554,20.0800564 C1.07556854,20.102535 1.06286327,20.1429312 1.06351482,20.1888657 C1.0651437,20.3129864 1.14235266,20.3058193 1.2062048,20.3051678 C1.96135404,20.3051678 2.65623469,20.1585685 3.32961411,19.8572255 C4.11180278,19.5066903 4.9083256,19.3310969 5.71299283,19.3310969 M10.3061116,21.3717591 C9.43433443,21.3720849 8.5612542,21.1880213 7.69208328,20.8198942 C6.3391347,20.2468539 5.05394756,20.2494601 3.76452534,20.8277128 C2.95073638,21.1919306 2.07733037,21.3831613 1.16580855,21.3681756 C0.510998374,21.364592 0.00962879297,20.8648513 0.000181283003,20.2054803 C-0.0053569125,19.8699308 0.116157612,19.5591403 0.342897852,19.3310969 C0.554652385,19.1177135 0.837751908,19.0007599 1.14137533,19.0007599 C1.15798992,19.0007599 1.1719983,19.0010856 1.18665822,19.0007599 C1.83039201,19.0007599 2.47836088,18.8473193 3.16705178,18.5319679 C3.92611034,18.1843647 4.75586234,18.0257117 5.74361579,18.0309241 C6.64145502,18.013658 7.53668803,18.1986988 8.39543411,18.5743188 C9.67443149,19.133025 10.9501711,19.1239033 12.2949753,18.544999 C14.0316882,17.7976683 15.793486,17.7924559 17.5341082,18.5306648 C18.8704422,19.0975154 20.1686604,19.0942576 21.5017366,18.5205657 C23.2156453,17.7826826 24.9611542,17.771932 26.6910258,18.4886397 C27.4406369,18.7997559 28.0713396,18.943749 28.6779349,18.9297407 C29.219375,18.9294149 29.7021753,19.3069895 29.8184774,19.8692792 C29.9269609,20.39215 29.673507,20.9404314 29.2154656,21.1730356 C29.0239092,21.2701169 28.8300724,21.2929213 28.7013908,21.2952017 C27.7849823,21.3118163 26.9102732,21.137526 26.1111442,20.7821042 C24.799895,20.198639 23.4951613,20.2022225 22.1220145,20.792529 C20.4019162,21.5330183 18.6551042,21.537905 16.9304449,20.8078405 C15.5768448,20.2348001 14.2685275,20.2361032 12.9302389,20.811424 C12.0613938,21.1850893 11.1844042,21.3717591 10.3061116,21.3717591" id="Fill-11"></path>
                    <path d="M2.08873254,13.0529008 L2.08873254,14.0100313 L2.08873254,13.0529008 Z M2.10665023,14.0100313 L2.10665023,16.0503677 L27.9123608,16.0327757 L27.8947689,13.9921136 L2.10665023,14.0100313 Z M27.9123608,17.946711 L2.08873254,17.946711 C1.04331669,17.946711 0.192715021,17.0961093 0.192715021,16.0503677 L0.192715021,13.9921136 C0.192715021,12.9466977 1.04331669,12.0957703 2.08873254,12.0957703 L27.9123608,12.0957703 C28.9581024,12.0957703 29.8087041,12.9466977 29.8087041,13.9921136 L29.8087041,16.0503677 C29.8087041,17.0961093 28.9581024,17.946711 27.9123608,17.946711 L27.9123608,17.946711 Z" id="Fill-14"></path>
                    <path d="M8.48717269,13.7618875 L14.7013538,16.1410312 L21.5758833,13.7618875 L8.48717269,13.7618875 Z M14.6876712,17.7871783 C14.5909157,17.7871783 14.4941601,17.7695864 14.402617,17.7344026 L3.88851577,13.7091118 C3.52918461,13.57196 3.31938473,13.1976432 3.38942662,12.819417 C3.45914273,12.4411908 3.78882825,12.1668872 4.17356995,12.1668872 L26.3182075,12.1668872 C26.7078359,12.1668872 27.0401276,12.4480321 27.1046313,12.8321223 C27.1694608,13.2162124 26.9472814,13.590855 26.5791543,13.7182335 L14.948618,17.7435243 C14.8639161,17.7728442 14.7759566,17.7871783 14.6876712,17.7871783 L14.6876712,17.7871783 Z" id="Fill-16"></path>
                </g>
            </g>
        </g>
    </g>
</svg>
