<svg width="108px" height="106px" viewBox="0 0 108 106" version="1.1" xmlns="http://www.w3.org/2000/svg" xmlns:xlink="http://www.w3.org/1999/xlink">
    <g id="Home" stroke="none" stroke-width="1" fill="none" fill-rule="evenodd">
        <g id="Home-L" transform="translate(-905.000000, -74.000000)">
            <g id="Nav" transform="translate(228.000000, 74.000000)">
                <g id="HJLogo" transform="translate(731.000000, 53.000000) rotate(-360.000000) translate(-731.000000, -53.000000) translate(677.000000, 0.000000)">
                    <g>
                        <g id="Group-3" fill="#D8232A">
                            <path d="M107.659735,93.3630988 C107.659735,100.342086 101.898,106 94.7921205,106 L12.8656627,106 C5.76043373,106 0,100.342086 0,93.3630988 L0,12.9064815 C0,5.92749383 5.76043373,0.270888889 12.8656627,0.270888889 L94.7921205,0.270888889 C101.898,0.270888889 107.659735,5.92749383 107.659735,12.9064815 L107.659735,93.3630988" id="Fill-1"></path>
                        </g>
                        <path d="M11.0672557,85.5719829 C9.74419246,83.3317963 9.6123408,80.5855912 9.6123408,80.5855912 C9.6123408,80.5855912 9.61493886,32.6818375 9.6,32.0796226 L9.6,29.693824 C9.61363983,29.2754362 9.63897094,28.8840624 9.67989042,28.5638475 C10.9509924,18.4526997 25.8326936,8.43181818 53.3864439,8.43181818 C80.9401942,8.43181818 95.8231943,18.4526997 97.0942963,28.5638475 C97.2833054,30.056866 97.1611965,33.101543 97.1611965,33.101543 L97.1611965,80.5855912 C97.1611965,80.5855912 97.0319428,83.3317963 95.7075806,85.5719829 C90.9187021,93.6834348 77.2788748,97.5681818 53.3864439,97.5681818 C29.4959615,97.5681818 15.8548351,93.6834348 11.0672557,85.5719829 Z" id="Fill-4" fill="#FFFFFE"></path>
                        <path d="M91.1728814,93.7412387 C91.5233898,93.7412387 91.8386441,93.7171168 91.8386441,93.2877466 C91.8386441,92.9459045 91.5288136,92.8811199 91.2413559,92.8811199 L90.6772881,92.8811199 L90.6772881,93.7412387 L91.1728814,93.7412387 Z M90.6772881,95.3015826 L90.2644068,95.3015826 L90.2644068,92.5241154 L91.3037288,92.5241154 C91.9498305,92.5241154 92.2705085,92.766713 92.2705085,93.3146253 C92.2705085,93.8108477 91.9620339,94.027945 91.560678,94.0775673 L92.339661,95.3015826 L91.8732203,95.3015826 L91.1538983,94.0968648 L90.6772881,94.0968648 L90.6772881,95.3015826 Z M91.2061017,95.9625232 C92.2772881,95.9625232 93.1247458,95.1086072 93.1247458,93.9486873 C93.1247458,92.8080649 92.2772881,91.9479461 91.2061017,91.9479461 C90.1227119,91.9479461 89.2766102,92.8080649 89.2766102,93.9486873 C89.2766102,95.1086072 90.1227119,95.9625232 91.2061017,95.9625232 Z M88.8,93.9486873 C88.8,92.5661565 89.9030508,91.5454545 91.2061017,91.5454545 C92.4983051,91.5454545 93.6,92.5661565 93.6,93.9486873 C93.6,95.3443128 92.4983051,96.3636364 91.2061017,96.3636364 C89.9030508,96.3636364 88.8,95.3443128 88.8,93.9486873 L88.8,93.9486873 Z" id="Fill-5" fill="#FFFFFE"></path>
                        <path d="M52.8006461,95.1590909 C78.3006904,95.1590909 91.2132176,90.5059351 93.5302874,81.6184881 C93.9140965,79.9927029 92.6457172,79.5 91.3760457,79.5 C90.1037896,79.5 52.8006461,79.5 52.8006461,79.5 C52.8006461,79.5 15.4968566,79.5 14.2239543,79.5 C12.9542828,79.5 11.6859035,79.9927029 12.0697126,81.6184881 C14.3867824,90.5059351 27.3018942,95.1590909 52.8006461,95.1590909" id="Fill-6" fill="#F6BC25"></path>
                        <path d="M52.8010545,10.8409091 C27.3002363,10.8409091 13.7114734,19.6830135 12.0696567,28.5747156 C11.6858554,30.6167072 12.9555012,31.3176017 14.2251469,31.3176017 C15.4986694,31.3189069 52.8010545,31.3176017 52.8010545,31.3176017 C52.8010545,31.3176017 90.1027935,31.3189069 91.3756699,31.3176017 C92.6466078,31.3176017 93.9149613,30.6167072 93.5298677,28.5747156 C91.8893433,19.6830135 78.3005804,10.8409091 52.8010545,10.8409091" id="Fill-7" fill="#F6BC25"></path>
                        <path d="M86.3580189,40.2011904 L84.7535351,37.6476461 C84.2826817,36.7620756 82.7760791,36.6018784 81.9808743,36.8908742 C80.9393673,37.2695805 80.4378061,38.4063403 80.9080197,39.29127 L84.0728449,44.4688454 C84.3101908,44.8802319 84.4163887,45.1160423 84.4151092,45.529992 L84.4151092,49.2696368 C84.4151092,50.3224532 85.692043,50.8203463 86.5678557,50.8203463 C87.4417492,50.8203463 88.718683,50.3224532 88.718683,49.2696368 L88.718683,45.529992 C88.718683,45.1160423 88.7461921,44.9327766 89.0545498,44.4810204 L92.227052,39.29127 C92.6959861,38.4063403 92.1694748,37.2952121 91.1522781,36.8908742 C90.3679491,36.5762468 88.8511105,36.7620756 88.3808969,37.6476461 L86.7668168,40.1832483 C86.6356688,40.4049613 86.4878874,40.4049613 86.3580189,40.2011904 Z M76.1903593,57.6183914 C75.5637347,58.0060951 76.1788616,58.8119959 76.6956194,58.77279 C77.2692269,58.7292277 79.5847361,56.7471473 78.6815278,54.773157 C78.4445474,54.2609899 77.9297059,53.8795094 77.2954161,53.8795094 C76.4784406,53.8795094 75.8173228,54.4993374 75.8173228,55.2666545 C75.8460671,56.2144437 76.4049831,56.4938642 76.5895851,56.5635637 C76.7754645,56.6326409 76.7243637,56.7714177 76.7071171,56.8585421 C76.5895851,57.1902372 76.5059073,57.3290139 76.1903593,57.6183914 Z M85.2208507,74.6818182 C82.5006061,74.6818182 80.8855606,74.1684942 79.5417099,72.9017745 C78.4888355,71.8406446 78.9284904,70.5485515 79.3400685,69.9012038 C79.7522848,69.257109 80.6660522,68.2610392 82.3257651,69.1146275 C83.8017036,69.8745291 83.9873924,69.6969151 84.68548,69.6969151 C85.7198494,69.6969151 86.1843903,68.8862666 86.1843903,68.0274736 C86.1843903,67.1693312 85.4352542,66.8609464 84.8832928,66.7347299 L83.6696157,66.483598 C81.3067103,66.0041052 78.9469954,64.1720135 78.9521003,61.4362372 C78.9597575,56.9210679 81.7068026,53.8808106 86.1722663,53.8808106 L86.1722663,53.8795094 C88.5951537,53.8795094 89.7475726,54.2692192 91.1309857,55.6582519 C92.1819458,56.7206829 91.7403767,57.9795954 91.3294366,58.6230395 C90.9178584,59.2671343 89.9868622,60.3002883 88.3431019,59.4070135 C87.1268724,58.7460031 86.8952401,58.832533 86.3305165,58.832533 C85.4403591,58.832533 84.9796467,59.4740253 84.9796467,60.2553969 C84.9796467,60.9619493 85.7523928,61.3100207 86.2182099,61.4362372 L87.5869467,61.7895135 C90.1463886,62.4466202 92.3727394,64.3040854 92.3995399,67.5317158 C92.4371881,71.6858017 90.1655318,74.6818182 85.2208507,74.6818182 Z M75.1686411,58.1693483 L71.1000284,63.1690727 C71.1000284,63.1690727 70.2640033,64.0374322 70.9176112,64.9090391 C71.6427679,65.8722232 74.8766446,69.6801453 74.8766446,69.6801453 C74.8766446,69.6801453 77.0334219,71.7429051 74.8154092,73.702397 C72.6006194,75.6534456 71.3443256,73.9751801 71.3443256,73.9751801 L66.0780763,67.5654269 C66.0780763,67.5654269 65.5404935,67.0425926 65.5404935,67.9979829 L65.5495177,67.9356325 L65.5495177,72.3858938 C65.5495177,73.9433554 63.8561961,74.6818182 62.6991683,74.6818182 C61.5408513,74.6818182 59.8488189,73.9433554 59.8488189,72.3858938 L59.8488189,56.1767327 C59.8488189,54.6186217 61.5408513,53.8795094 62.6991683,53.8795094 C63.8561961,53.8795094 65.5495177,54.6186217 65.5495177,56.1767327 L65.5495177,60.5782828 L65.5404935,60.5198293 C65.5404935,61.0653954 65.8789,61.0907253 66.1135284,60.7737773 L70.8531528,55.0453324 C71.9134931,53.678819 73.4946571,53.6437468 74.7799571,54.7472194 C75.9202258,55.7240427 76.1535651,56.9366285 75.1686411,58.1693483 Z M20.2851627,74.6818182 C24.7681594,74.6818182 26.0475068,71.876896 26.0475068,68.8639377 L26.0692913,68.5463749 L26.0692913,56.1640174 C26.0692913,54.6137924 24.3417103,53.8795094 23.1594033,53.8795094 C21.9770962,53.8795094 20.2501754,54.6137924 20.2501754,56.1640174 L20.2501754,67.8263499 C20.3756016,69.6805279 19.1556666,70.1575202 18.683668,68.7868154 C18.0123077,67.1400253 16.3256553,67.50101 15.6773998,67.8263499 C15.0298045,68.1503935 14.1029708,68.991611 14.4924522,70.586554 C15.1783355,73.0207702 16.9277011,74.6552466 20.2851627,74.6818182 Z M35.5441359,66.7279942 C35.5441359,66.7279942 33.8658824,66.7279942 33.6947738,66.7279942 C33.5230338,66.7279942 33.3790752,66.6087565 33.4649452,66.3920772 L34.3728943,63.4034411 C34.4676038,62.9688004 34.8312886,62.9175153 34.957568,63.3963894 L35.8623601,66.3907951 C35.9551754,66.6690164 35.8585717,66.7279942 35.5441359,66.7279942 Z M37.7297824,71.7752457 L38.0089227,72.7040497 C38.3215084,74.064084 40.1166249,74.8419898 41.157934,74.6540176 C42.3188746,74.4465327 43.6502581,73.1346296 43.1627273,71.6275997 L38.3388742,55.9341954 C37.8944366,54.3699283 36.0793814,53.9152826 34.9750407,53.8795094 C33.8719863,53.9152826 32.0402084,54.3965956 31.6092776,55.9341954 L26.7867108,71.6275997 C26.2998232,73.1346296 27.6299203,74.4465327 28.790861,74.6540176 C29.8321701,74.8419898 31.6272866,74.064084 31.9411586,72.7040497 L32.2190126,71.7778474 C32.291692,71.4858075 32.4209712,71.4207652 32.6673093,71.4207652 C32.9162202,71.4207652 37.3039969,71.4207652 37.3039969,71.4207652 C37.6345917,71.4207652 37.6622484,71.5541019 37.7297824,71.7752457 Z M48.4393429,64.3044151 C48.4393429,67.0525076 49.4801918,69.5072391 52.4544095,69.5072391 C53.2552583,69.5072391 53.3583883,69.4019629 54.3667703,68.9320718 C56.1435344,68.1007755 57.0920755,69.0752217 57.5275132,69.7409007 C57.9610411,70.4052959 58.4302189,71.7507763 57.3174336,72.8478308 C56.1970092,74.0033006 54.6016775,74.6818182 52.1711203,74.6818182 C46.5518096,74.6818182 42.6519685,70.4226279 42.6519685,64.2793799 C42.6519685,58.1374158 46.5518096,53.8795094 52.1711203,53.8795094 C54.5482027,53.8795094 56.0690516,54.4270737 57.3174336,55.7122129 C58.4302189,56.8092674 57.9610411,58.1380577 57.5275132,58.8018109 C57.0920755,59.4674899 56.1422612,60.443862 54.3667703,59.6099979 C53.4627915,59.1863256 53.289635,59.0335468 52.4544095,59.0335468 C49.4801918,59.0335468 48.4336134,61.5550388 48.4336134,64.3044151 L48.4393429,64.3044151 Z M19.1793728,45.6350594 C18.9126172,45.6350594 18.6719019,45.7300374 18.6719019,46.0714449 L18.6719019,49.2673272 C18.6719019,50.3204282 17.4041772,50.8203463 16.5359509,50.8203463 C15.6677247,50.8203463 14.4,50.3204282 14.4,49.2673272 L14.4,38.3024989 C14.4,37.2461892 15.6677247,36.7481962 16.5359509,36.7481962 C17.4041772,36.7481962 18.6719019,37.2461892 18.6719019,38.3024989 L18.6719019,41.2320576 C18.6719019,41.5561381 18.8954686,41.6819198 19.1444406,41.6819198 L21.3254859,41.6819198 C21.6106605,41.6819198 21.7980246,41.5561381 21.7980246,41.2320576 L21.7980246,38.3024989 C21.7980246,37.2461892 23.0657493,36.7481962 23.9339755,36.7481962 C24.8015667,36.7481962 26.0692913,37.2461892 26.0692913,38.3024989 L26.0692913,49.2673272 C26.0692913,50.3204282 24.8015667,50.8203463 23.9339755,50.8203463 C23.0657493,50.8203463 21.7980246,50.3204282 21.7980246,49.2673272 L21.7980246,46.0714449 C21.7980246,45.7300374 21.575093,45.6350594 21.3083373,45.6350594 L19.1793728,45.6350594 Z M62.9222944,45.5096469 C61.3364684,45.5096469 61.0716205,44.4255506 61.0716205,43.6296318 C61.0716205,42.8356734 61.4127916,41.8143097 62.9607821,41.8143097 L66.0593725,41.8143097 C67.155295,41.8143097 67.8330709,42.2410215 67.8330709,43.2924446 L67.8330709,47.2824939 C67.8330709,49.5715772 64.9243099,50.8203463 61.7148226,50.8203463 C57.5711919,50.8203463 54.3212598,48.522768 54.3212598,43.4407808 C54.3212598,39.1266135 57.3702728,36.1363636 61.7565721,36.1363636 C64.0006038,36.1363636 65.7064594,36.616006 66.8891424,37.6510925 C67.759357,38.4208727 67.3933972,39.4428899 67.0528784,39.9101165 C66.713012,40.3760361 65.9576083,41.0961531 64.5850958,40.4779764 C63.2132357,39.8591463 62.8081358,39.8454236 61.9796706,39.8454236 C59.6547493,39.8454236 58.8432448,41.5679539 58.8432448,43.4976322 C58.8432448,45.4279639 59.8445787,47.0178411 61.6013164,47.0178411 C63.0358006,47.0178411 63.5420125,46.5741392 63.488521,45.8259233 C63.488521,45.5410131 63.3567494,45.5096469 62.9222944,45.5096469 Z M74.2257732,42.254576 C75.0909166,42.254576 75.8173228,41.6818096 75.8173228,40.7366484 C75.8173228,39.7921315 75.5156352,39.1955267 74.1492061,39.1955267 C73.6453026,39.1955267 73.5176907,39.2947461 73.3606299,39.5002719 L73.3606299,42.0000847 C73.3606299,42.2681059 73.6682074,42.254576 74.2257732,42.254576 Z M78.1757574,44.6517282 C77.9729131,44.800466 77.9969683,44.9147324 78.0957899,45.050703 L80.4727089,48.0918488 C81.0935945,48.8834149 80.4993647,49.9903307 79.6905881,50.4908047 C78.9630793,50.9408483 77.4053392,51.0027692 76.7831533,50.2124799 L73.7469904,46.3440198 C73.5779535,46.1391064 73.3302494,46.2227315 73.3302494,46.4908426 L73.3302494,49.3532477 C73.3302494,50.3631328 72.0631227,50.7984941 71.1971336,50.7984941 C70.328544,50.7984941 69.0614173,50.3631328 69.0614173,49.3532477 L69.0614173,38.2955803 C69.0614173,37.2882486 70.1699094,36.7481962 71.1971336,36.7481962 L75.2273636,36.7481962 C78.8167973,36.7481962 80.0475161,39.4676087 80.0475161,40.8962578 C80.0475161,42.1793609 79.6665329,43.6507801 78.1757574,44.6517282 Z M33.4396899,50.2085137 C36.0145901,50.2085137 38.9669291,48.5514407 38.9669291,46.1945881 L38.9669291,37.5947651 C38.9669291,36.5767313 37.7137044,36.1363636 36.8571103,36.1363636 C35.9998764,36.1363636 34.7466517,36.5767313 34.7466517,37.5947651 L34.7466517,45.3606735 C34.7466517,45.9275836 34.0589454,46.2527976 33.4396899,46.2527976 C32.8185153,46.2527976 32.1327282,45.9275836 32.1327282,45.3606735 L32.1327282,37.5947651 C32.1327282,36.5767313 30.8795035,36.1363636 30.0209901,36.1363636 C29.1637563,36.1363636 27.911811,36.5767313 27.911811,37.5947651 L27.911811,46.1945881 C27.911811,48.5514407 30.86415,50.2085137 33.4396899,50.2085137 Z M44.5201672,44.9664413 L44.5201672,49.1987096 C44.5201672,50.1627664 43.2379161,50.8203463 42.3586764,50.8203463 C41.48071,50.8203463 40.1952756,50.2999263 40.1952756,49.1987096 L40.1952756,37.8400338 C40.1952756,36.7401296 41.48071,36.1363636 42.3586764,36.1363636 C43.4741202,36.1363636 44.1407125,36.7762243 44.6640543,37.4758054 L48.1039762,41.9403924 C48.3739238,42.292808 48.7680218,42.3492469 48.7680218,42.0355511 L48.7680218,37.8400338 C48.7680218,36.7401296 50.0509096,36.1363636 50.9314226,36.1363636 C51.809389,36.1363636 53.0929134,36.7401296 53.0929134,37.8400338 L53.0929134,49.1987096 C53.0929134,50.2940199 51.809389,50.8203463 50.9314226,50.8203463 C50.17697,50.8203463 49.6720916,50.8052522 48.7616551,49.648909 C47.852492,48.495191 45.1109959,44.9664413 45.1109959,44.9664413 C44.9244519,44.7177159 44.5201672,44.6593081 44.5201672,44.9664413 L44.5201672,44.9664413 Z" id="Fill-8" fill="#D8232A"></path>
                    </g>
                </g>
            </g>
        </g>
    </g>
</svg>